<svg xmlns="http://www.w3.org/2000/svg" viewBox="0 0 512 512" fill="none">
  <!-- Background circle -->
  <circle cx="256" cy="256" r="256" fill="url(#gradient)"/>
  
  <!-- Stars -->
  <g fill="white" opacity="0.9">
    <circle cx="120" cy="100" r="4"/>
    <circle cx="180" cy="80" r="3"/>
    <circle cx="350" cy="120" r="5"/>
    <circle cx="400" cy="90" r="3"/>
    <circle cx="150" cy="180" r="3"/>
    <circle cx="380" cy="200" r="4"/>
    <circle cx="100" cy="280" r="3"/>
    <circle cx="420" cy="320" r="4"/>
    <circle cx="80" cy="380" r="3"/>
    <circle cx="200" cy="420" r="4"/>
    <circle cx="320" cy="400" r="3"/>
  </g>
  
  <!-- Camera lens aperture -->
  <g transform="translate(256, 256)">
    <!-- Aperture blades -->
    <path d="M0,-80 L-40,-20 L-40,20 L0,80 L40,20 L40,-20 Z" fill="none" stroke="white" stroke-width="3" opacity="0.8"/>
    <path d="M0,-80 L-40,-20 L-40,20 L0,80 L40,20 L40,-20 Z" fill="none" stroke="white" stroke-width="3" opacity="0.8" transform="rotate(60)"/>
    <path d="M0,-80 L-40,-20 L-40,20 L0,80 L40,20 L40,-20 Z" fill="none" stroke="white" stroke-width="3" opacity="0.8" transform="rotate(120)"/>
    
    <!-- Center circle -->
    <circle cx="0" cy="0" r="25" fill="none" stroke="white" stroke-width="3"/>
    <circle cx="0" cy="0" r="10" fill="white"/>
  </g>
  
  <!-- Gradient definition -->
  <defs>
    <linearGradient id="gradient" x1="0%" y1="0%" x2="100%" y2="100%">
      <stop offset="0%" style="stop-color:#0f172a;stop-opacity:1" />
      <stop offset="50%" style="stop-color:#1e293b;stop-opacity:1" />
      <stop offset="100%" style="stop-color:#334155;stop-opacity:1" />
    </linearGradient>
  </defs>
</svg>
